<svg xmlns="http://www.w3.org/2000/svg" viewBox="-229 156 500 250">
  <path fill="#00589A" d="M21 406h250V156H21v250z"/>
  <path fill="#FFF" d="M204.3 293c-3.6-13.1-12-24-23.8-30.8-11.8-6.7-25.5-8.5-38.6-4.9-.5.1-1 .5-1.2.9-.3.5-.3 1-.2 1.5l2.6 9.5c.1.5.5 1 .9 1.2.5.3 1 .3 1.5.2 9.5-2.6 19.5-1.3 28.1 3.6 8.6 4.9 14.8 12.9 17.4 22.4 2.5 9.3 1.4 19-3.2 27.4-11.9 19.3-36.6 25.7-56.4 14.4-9.7-5.5-16.7-14.5-19.6-25.3-2.9-10.8-1.5-22 4-31.7l38.6-67.6c.3-.5.3-1 .2-1.5-.1-.5-.5-1-.9-1.2l-8.5-4.9c-1-.6-2.2-.2-2.8.7l-40.7 71.2c-.2.3-.2.6-.2.9-5.4 11.8-6.5 25.2-3.1 37.8 3.9 14.3 13.2 26.3 26.1 33.7 8.4 4.8 17.9 7.3 27.5 7.3 5.2 0 10.5-.8 15.6-2.3.3.1.6.1.9 0 13.1-3.6 24-12 30.8-23.8.2-.3.3-.6.5-.8l.3-.6c.1-.2.2-.3.3-.5.1-.2.2-.3.2-.5 5.8-11.3 7-24.2 3.7-36.3"/>
  <path fill="#FFF" d="M-30 217.4h-33c-1 0-1.9.7-2.1 1.7l-19.7 108.1-23.6-108.1c-.2-1-1.1-1.7-2.1-1.7h-35.7c-1 0-1.9.7-2.1 1.7L-172 327.7l-19.7-108.5c-.2-1-1.1-1.7-2.1-1.7h-33.1c-.6 0-1.2.3-1.6.8-.4.5-.6 1.1-.4 1.8l29.4 142.3c.2 1 1.1 1.7 2.1 1.7h45.5c1 0 1.9-.7 2.1-1.7l21.2-98.5 21.7 98.6c.2 1 1.1 1.7 2.1 1.7h45.4c1 0 1.9-.7 2.1-1.7L-27.9 220c.1-.6 0-1.3-.4-1.8-.5-.5-1.1-.8-1.7-.8"/>
</svg>